<svg xmlns="http://www.w3.org/2000/svg" viewBox="0 0 81.58 81.52"><defs><style>.cls-1{fill:#fff;}</style></defs><g id="Layer_2" data-name="Layer 2"><g id="Layer_1-2" data-name="Layer 1"><path class="cls-1" d="M70.34,56.18a39.93,39.93,0,0,1-13,18.51c-12.06,9.46-23,9.08-34.53-1.07A40.78,40.78,0,0,1,11.23,56.26a7.54,7.54,0,0,1-8.18-3.55C.93,49.48-.64,46.08.26,42.06A8.08,8.08,0,0,1,4.6,36.69,2.27,2.27,0,0,0,6,34.27c-.49-18.65,11.45-32.07,30-34C43.56-.5,51,.24,57.86,3.66,70.09,9.75,75.52,20.09,75.51,33.5A3.43,3.43,0,0,0,77.37,37c3.42,2,4.95,5.19,3.85,9.09a27,27,0,0,1-3.13,7C76.42,55.8,73.74,56.87,70.34,56.18ZM69.23,40.47a4.43,4.43,0,0,1-.09-.77c.06-.52.18-1,.24-1.54,1-8.64-.71-16.49-6.53-23.26C54.22,4.84,36.67,4.3,26.47,9.1,16.83,13.63,11.2,23.83,11.9,35.29c.11,1.73.32,3.46.49,5.24l-1.57.13c-4.44.35-5.51,2-3.93,6.13a12.73,12.73,0,0,0,1,2,2.36,2.36,0,0,0,3,1.28c1.4-.41,2.86-.62,4.22-.9.14.17.22.22.24.29.36,1.12.75,2.24,1.09,3.37,2.6,8.86,8.15,15.33,16,20,5.4,3.17,10.77,3.31,16.24.21A33.91,33.91,0,0,0,65.1,53c.4-1.31.82-2.62,1.22-3.9,6.57,1.38,8.19.54,9-4.45C75.69,42.05,74.4,41.13,69.23,40.47Z"/><path class="cls-1" d="M24.3,42l4.08-4,9,9.49L59.47,25.35l4,4.39L37.57,55.62C33.34,51.3,28.86,46.72,24.3,42Z"/></g></g></svg>