<svg xmlns="http://www.w3.org/2000/svg" viewBox="0 0 95.58 86.76"><defs><style>.cls-1{fill:#fff;}</style></defs><g id="Layer_2" data-name="Layer 2"><g id="Layer_1-2" data-name="Layer 1"><path class="cls-1" d="M95.58,58.57c0,14.67-9,25.35-22.07,27.77a26.16,26.16,0,0,1-29-16.77c-.82-2.27-1.86-2.85-4.16-2.83-12.48.13-25,.06-37.43.06C-.21,66.8-.4,66.53.4,63.39A33.61,33.61,0,0,1,47,41.37c1.86.87,2.89.88,4.56-.59,8.33-7.34,17.94-9,28.08-4.64C90,40.62,95.12,49,95.58,58.57Zm-2.16,2A24.22,24.22,0,1,0,68.54,84.54,24.26,24.26,0,0,0,93.42,60.62ZM2.57,64.47h40c.33-3.66.24-7.2,1.07-10.51s2.59-6.52,4-9.79C29.75,34,6.29,45.22,2.57,64.47Z"/><path class="cls-1" d="M32.93,35.42A17.75,17.75,0,0,1,15.18,17.8a17.72,17.72,0,1,1,35.44,0A17.58,17.58,0,0,1,32.93,35.42ZM48.47,17.69A15.57,15.57,0,1,0,33.12,33.28,15.59,15.59,0,0,0,48.47,17.69Z"/><path class="cls-1" d="M79.75,20.81c.55-1.63,1-3,1.5-4.31.17-.41.72-.93,1.09-.92s.81.55,1.11,1a2.1,2.1,0,0,1,.3,1c.36,2.68,1.78,3.77,4.52,3.33.72-.12,1.54.45,2.32.7-.47.68-.8,1.64-1.45,2-2.48,1.28-2.88,3-1.73,5.41a6.36,6.36,0,0,1,0,2.43c-.79-.27-1.8-.32-2.33-.85-2-2-3.72-1.82-5.66.06-.53.51-1.54.5-2.33.74a6.22,6.22,0,0,1,.11-2.46c1.28-2.48.63-4.09-1.77-5.35-.65-.34-1-1.3-1.44-2a14.11,14.11,0,0,1,2.39-.7A30.58,30.58,0,0,1,79.75,20.81Zm2.57.4-2.84,2.13,1.13,3.32h3.44l1.18-3.32Z"/><path class="cls-1" d="M63.6,15.26l2.15,5.55c1.26,0,2.51-.07,3.74,0a8.41,8.41,0,0,1,1.86.65c-.37.64-.58,1.58-1.13,1.85-2.84,1.4-3.25,3.36-1.84,6,.29.54.14,1.3.26,2.78A27.71,27.71,0,0,1,65.08,30c-1.38-1.21-2.57-1.38-3.9,0a6.44,6.44,0,0,1-1.73,1.24A1.76,1.76,0,0,1,58,31.3c-.3-.19-.3-.88-.38-1.37a.9.9,0,0,1,.18-.49c1.63-2.92.71-4.92-2.16-6.35-.43-.21-.59-1-.88-1.47.51-.27,1.07-.84,1.5-.76,3.55.7,5.24-.93,5.72-4.28a2.06,2.06,0,0,1,.56-.88C62.65,15.58,62.87,15.56,63.6,15.26Zm-.44,6-2.92,2.1,1.15,3.33h3.47L66,23.46Z"/><path class="cls-1" d="M76.86,52.5c2.69-.16,4.8-.32,6.92-.39,4.91-.16,6.47,2.45,4.4,6.92a16.15,16.15,0,0,0-1,5,41.69,41.69,0,0,0-.31,6.6c.13,2.38-1,4.11-3.37,4.16-5.43.1-10.88.26-16.28-.12-1.4-.1-3.37-1.88-3.87-3.31-1.73-5-1.45-10.2-.21-15.26.39-1.58,1.84-3,3-4.27a25.89,25.89,0,0,0,6.3-10.69c.35-1.21.33-2.8,2.32-2.64s3.66,1.06,3.81,3a27.59,27.59,0,0,1-.62,6.3C77.76,49.26,77.32,50.61,76.86,52.5Zm-1-11.79-.67.19a70.31,70.31,0,0,1-3.85,7.78,83.33,83.33,0,0,1-5.55,6.81,3.11,3.11,0,0,0-.8,1.66c-.06,4.25-.17,8.51,0,12.76.09,1.85,1.33,2.91,3.48,2.85,4.36-.12,8.73,0,13.09-.07a15,15,0,0,0,3-.66c-.44-.87-.89-1.74-1.31-2.62a2.59,2.59,0,0,1-.06-.68c1.58-.9,3-2,1-4a1.05,1.05,0,0,1,0-1c2.46-1.49,1.47-3.3.69-4.46l2.2-3.69a19.94,19.94,0,0,0-3.94-1.29,40.5,40.5,0,0,0-4.52.19c-3.33,0-4.14-1-3.47-4.28.44-2.09,1.18-4.12,1.45-6.23C76.71,43,76.1,41.83,75.83,40.71Z"/><path class="cls-1" d="M60.58,65.62c0,2.41,0,4.81,0,7.21,0,1.49-.59,2-2.06,2.06-8.11.45-8.11.48-8.11-7.47,0-3,.08-6.06,0-9.08-.06-1.77.62-2.27,2.33-2.32,7.86-.2,7.85-.24,7.85,7.46Zm-3.12,7.27.81-.52V58.3c-2,.52-2.14,1.49-1.68,12.43A7.15,7.15,0,0,0,57.46,72.89ZM54.4,65.6c0-1.95.07-3.9,0-5.85,0-.51-.63-1-1-1.5-.27.46-.77.92-.78,1.38q-.09,5.85,0,11.7c0,.46.52.9.79,1.36.33-.5.93-1,1-1.5C54.48,69.33,54.4,67.47,54.4,65.6Z"/></g></g></svg>