<svg xmlns="http://www.w3.org/2000/svg" viewBox="0 0 83.18 83.69"><defs><style>.cls-1{fill:#fff;}</style></defs><g id="Layer_2" data-name="Layer 2"><g id="Layer_1-2" data-name="Layer 1"><path class="cls-1" d="M.74,83.69c-.27-.68-.9-1.52-.7-2s1.23-.77,1.93-.85a33.93,33.93,0,0,1,3.82,0V78.25q0-37.44,0-74.9C5.78,0,5.8,0,9.1,0H47.74c2.61,0,2.82.23,2.82,2.87q0,9,0,18.07c.26,0,.43.1.5,0,2.59-1.88,2.59-1.88,5.13.22,6.5,5.37,13,10.77,19.52,16.08A4.29,4.29,0,0,1,77.43,41c-.06,12.42,0,24.83,0,37.25v2.53a34.15,34.15,0,0,1,3.81,0c.7.07,1.73.37,1.93.86s-.43,1.32-.7,2Zm8-3.07H29.7V77.88c0-12.35,0-24.7,0-37.06,0-.91.21-2.26.81-2.64,2-1.29,2.26-3,2.1-5.13-.1-1.26,0-2.53,0-3.79-.11-1.75.7-2.39,2.38-2.31,1.39.08,2.81-.12,4.18.07a16.47,16.47,0,0,1,3.22,1.2,45.86,45.86,0,0,0,4-3.32,4.4,4.4,0,0,0,1.24-2.65c.12-4.51.05-9,.05-13.54V3.06H8.79Zm23.84,0H44.58V78.09c0-8.23,0-16.46,0-24.69,0-1.93.7-2.59,2.57-2.56,4.38.08,8.76.06,13.14,0,1.59,0,2.29.6,2.26,2.23-.06,3.06,0,6.11,0,9.16V80.66h12V78.77c0-12-.07-23.89,0-35.84a5.08,5.08,0,0,0-2.33-4.78c-1.74-1.2-3.29-2.67-4.93-4L53.55,22.87C46.72,28.47,40,34,33.32,39.52a2.79,2.79,0,0,0-.66,1.91c-.06,4.31,0,8.63,0,12.94C32.62,63.06,32.63,71.76,32.63,80.63Zm14.95,0H59.42V53.94H47.58ZM35.66,33.56c2.88-1.83,3-2,2.63-3.58H35.66Z"/><path class="cls-1" d="M23.6,68.83c0,5.83,0,5.83-5.76,5.84-3,0-3.14-.1-3.15-3.12,0-2.26,0-4.52,0-6.78,0-1.33.61-2,1.93-1.95,1.73,0,3.45,0,5.18,0a1.57,1.57,0,0,1,1.82,1.81C23.59,66,23.6,67.43,23.6,68.83Zm-3-2.93H17.79v5.75h2.78Z"/><path class="cls-1" d="M23.6,15c0,1.33,0,2.66,0,4s-.56,2-1.91,1.94c-1.72,0-3.45,0-5.18,0A1.62,1.62,0,0,1,14.69,19c0-2.72,0-5.44,0-8.17A1.63,1.63,0,0,1,16.55,9h5.38c1.16,0,1.67.62,1.67,1.75,0,1.39,0,2.79,0,4.18Zm-3-2.91H17.75v5.76h2.84Z"/><path class="cls-1" d="M41.5,15c0,1.39,0,2.79,0,4.18a1.48,1.48,0,0,1-1.67,1.73H34.45A1.61,1.61,0,0,1,32.62,19c0-2.73,0-5.45,0-8.17A1.62,1.62,0,0,1,34.47,9h5.38c1.16,0,1.67.59,1.65,1.74C41.47,12.17,41.49,13.56,41.5,15Zm-3,2.86V12.08H35.65v5.74Z"/><path class="cls-1" d="M14.69,32.76c.06-6.63-.81-5.73,5.85-5.79,3,0,3.07.05,3.07,3.14,0,2.26,0,4.52,0,6.77,0,1.33-.56,1.94-1.92,1.9-1.73-.05-3.45,0-5.18,0a1.6,1.6,0,0,1-1.82-1.83ZM17.8,30v5.8h2.76V30Z"/><path class="cls-1" d="M23.61,51.31c-.11,6.32.94,5.35-5.79,5.43-3,0-3.13-.13-3.14-3.14,0-2.19,0-4.38,0-6.57,0-1.52.65-2.18,2.16-2.14s3.19.06,4.78,0,2.05.63,2,2S23.61,49.59,23.61,51.31ZM20.6,48H17.75v5.68H20.6Z"/><path class="cls-1" d="M53.7,41.85a22.81,22.81,0,0,1,4,.07c.65.11,1.18.92,1.76,1.42-.58.47-1.14,1.33-1.75,1.36a76.59,76.59,0,0,1-8.16,0c-.64,0-1.23-.82-1.84-1.27.61-.52,1.16-1.39,1.85-1.51A24.14,24.14,0,0,1,53.7,41.85Z"/></g></g></svg>