<svg xmlns="http://www.w3.org/2000/svg" viewBox="0 0 33.85 30.19"><defs><style>.cls-1{fill:#4d4d4d;}</style></defs><g id="Layer_2" data-name="Layer 2"><g id="Layer_1-2" data-name="Layer 1"><path class="cls-1" d="M33.85,14.77a3.15,3.15,0,0,1-.36.37c-.28.2-.63.12-1-.2L28.4,11.47,17.13,1.87l-.2-.16a2.43,2.43,0,0,0-.25.2Q9,8.4,1.4,14.9a1.64,1.64,0,0,1-.69.33.61.61,0,0,1-.63-.39.67.67,0,0,1,.06-.72,1.79,1.79,0,0,1,.27-.28L16.28.32c.51-.43.79-.42,1.31,0l4.55,3.89.24.18c0-.13,0-.22,0-.31V1.67a.8.8,0,0,1,.9-.89c1.05,0,2.09,0,3.14,0a.82.82,0,0,1,.93.94c0,2.21,0,4.43,0,6.64a.58.58,0,0,0,.24.5c1.93,1.64,3.86,3.28,5.78,4.94a5.28,5.28,0,0,1,.47.57Zm-10-12.5a22.4,22.4,0,0,1,0,2.32,1.72,1.72,0,0,0,.85,1.81,11.55,11.55,0,0,1,1.19,1V2.27Z"/><path class="cls-1" d="M5.33,15.77l-.76.65c-.45.38-.87.4-1.16,0s-.22-.77.21-1.14L12.16,8l4.1-3.5c.53-.45.8-.46,1.32,0L30.24,15.34a.78.78,0,0,1,.34.89.7.7,0,0,1-1.15.31c-.3-.22-.57-.47-.91-.77v.47q0,6.42,0,12.85a3.46,3.46,0,0,1,0,.46.7.7,0,0,1-.6.62,3,3,0,0,1-.43,0H6.38a2.75,2.75,0,0,1-.4,0,.71.71,0,0,1-.63-.62,3.46,3.46,0,0,1,0-.46V15.77ZM27.05,28.71c0-.12,0-.19,0-.27,0-4.55,0-9.1,0-13.65a.67.67,0,0,0-.2-.44c-3.23-2.77-6.47-5.52-9.7-8.28l-.23-.17-.1.07L7,14.36a.69.69,0,0,0-.19.48q0,6.77,0,13.52v.34h5.76V20.34c0-.7.25-.94,1-.95h6.71c.89,0,1.08.2,1.08,1.1v8.22Zm-7.24,0V20.88H14v7.84Z"/></g></g></svg>