<svg xmlns="http://www.w3.org/2000/svg" viewBox="0 0 19.32 33.28"><defs><style>.cls-1{fill:#4d4d4d;}</style></defs><g id="Layer_2" data-name="Layer 2"><g id="Layer_1-2" data-name="Layer 1"><path class="cls-1" d="M19.32,10c0-.83-.18-1-1-1.27a2,2,0,0,1-1.52-1.56,8.7,8.7,0,0,1-.13-.87,7.05,7.05,0,0,0-5-6C11.21.15,10.75.1,10.31,0H9a1.41,1.41,0,0,1-.22.06A7,7,0,0,0,4.21,2.58,7.51,7.51,0,0,0,2.59,6.71,2.12,2.12,0,0,1,.72,8.84a.85.85,0,0,0-.69.8,9,9,0,0,0,0,1.27.92.92,0,0,0,1.06.82l.7-.11V32.31c-.13,0-.24,0-.34,0a.48.48,0,0,0,0,1,1.38,1.38,0,0,0,.29,0H17.84a.49.49,0,0,0,.49-.5.48.48,0,0,0-.48-.47l-.32,0V22.74a1.69,1.69,0,0,0,0-.32.48.48,0,0,0-1,0,1.82,1.82,0,0,0,0,.33v9.52H12.71v-.41c0-.49,0-1,0-1.49a.48.48,0,1,0-1,0c0,.12,0,.24,0,.36v1.53H7.61V26.54h4.12V28c0,.37.19.6.49.6s.49-.23.49-.61V26.59c0-.76-.29-1.05-1-1.05h-4c-.74,0-1,.29-1,1.05v5.69H2.78c0-.07,0-.11,0-.15V11.46A.38.38,0,0,1,3,11.09,4.85,4.85,0,0,0,5.34,8a13.92,13.92,0,0,0,.23-1.44,4.12,4.12,0,0,1,6.28-3,4.34,4.34,0,0,1,2,3.48,4.94,4.94,0,0,0,2.46,4,.49.49,0,0,1,.27.49c0,2.79,0,5.59,0,8.38,0,.1,0,.2,0,.3a.46.46,0,0,0,.48.46.47.47,0,0,0,.48-.47,2.71,2.71,0,0,0,0-.29V11.61l.64.11a.94.94,0,0,0,1.15-1C19.33,10.52,19.32,10.28,19.32,10Zm-1,.71a3.87,3.87,0,0,1-2.17-1A4.08,4.08,0,0,1,14.8,7a5.39,5.39,0,0,0-1.87-3.83,5.08,5.08,0,0,0-8.27,3c-.1.55-.13,1.11-.27,1.63a4,4,0,0,1-3.06,3,1.69,1.69,0,0,1-.35,0c0-.3,0-.56,0-.83,0-.06.11-.14.19-.16A3.07,3.07,0,0,0,3.55,6.88,6.15,6.15,0,0,1,6.82,1.7,6,6,0,0,1,15.64,6c.07.39.1.78.17,1.16a3,3,0,0,0,2.38,2.58l.14,0Z"/><path class="cls-1" d="M7.07,12.51a.82.82,0,0,0-.91-.88H4.77a.85.85,0,0,0-1,1c0,.65,0,1.3,0,2s0,1.39,0,2.08a.84.84,0,0,0,.86.9q.78,0,1.56,0a.82.82,0,0,0,.85-.87C7.08,15.28,7.08,13.9,7.07,12.51Zm-2.27.11H6.07v1.53H4.8Zm1.28,3.92H4.79V15.17H6.08Z"/><path class="cls-1" d="M11.3,12.51a.82.82,0,0,0-.91-.88H9a.86.86,0,0,0-.94.95v2H8c0,.7,0,1.41,0,2.11a.82.82,0,0,0,.85.87q.78,0,1.56,0a.83.83,0,0,0,.86-.87C11.31,15.28,11.31,13.9,11.3,12.51ZM9,12.63H10.3v1.53H9Zm1.29,3.91H9V15.16h1.3Z"/><path class="cls-1" d="M15.52,12.5a.82.82,0,0,0-.88-.87H13.18a.84.84,0,0,0-.93.92c0,.67,0,1.34,0,2s0,1.38,0,2.08a.83.83,0,0,0,.86.89q.78,0,1.56,0a.82.82,0,0,0,.85-.88C15.53,15.28,15.53,13.89,15.52,12.5Zm-1,4H13.24V15.17h1.29Zm0-2.4h-1.3V12.63h1.3Z"/><path class="cls-1" d="M7.07,19.31a.83.83,0,0,0-.91-.91H4.77a.86.86,0,0,0-1,1c0,.66,0,1.32,0,2s0,1.37,0,2a.85.85,0,0,0,.91.91H6.17a.84.84,0,0,0,.9-.92Q7.09,21.35,7.07,19.31Zm-1,4H4.78V21.94h1.3Zm0-2.39H4.8V19.4H6.08Z"/><path class="cls-1" d="M11.3,19.31a.84.84,0,0,0-.91-.91H8.93a.84.84,0,0,0-.91.91v4.08a.86.86,0,0,0,.94.92h1.4a.85.85,0,0,0,.94-.95c0-.68,0-1.36,0-2S11.31,20,11.3,19.31Zm-1,4H9V21.93H10.3Zm0-2.4H9V19.39h1.29Z"/><path class="cls-1" d="M15.53,19.31a.84.84,0,0,0-.91-.91H13.19a.84.84,0,0,0-.94.94c0,.67,0,1.34,0,2s0,1.36,0,2a.85.85,0,0,0,.91.91h1.46a.84.84,0,0,0,.9-.92C15.53,22,15.53,20.67,15.53,19.31Zm-1,4H13.25V21.93h1.28Zm0-2.4H13.25V19.39h1.29Z"/><path class="cls-1" d="M9.67,4.78a1.93,1.93,0,1,0,0,3.86A2,2,0,0,0,11.6,6.71,1.94,1.94,0,0,0,9.67,4.78Zm0,2.88a1,1,0,1,1,.95-1A1,1,0,0,1,9.67,7.66Z"/><path class="cls-1" d="M9.85,29.29c0-.11,0-.22,0-.32a.47.47,0,0,1,.94,0,2.68,2.68,0,0,1,0,.8.43.43,0,0,1-.52.38.44.44,0,0,1-.42-.46c0-.11,0-.23,0-.35Z"/></g></g></svg>