<svg xmlns="http://www.w3.org/2000/svg" viewBox="0 0 26.67 30.06"><defs><style>.cls-1{fill:#4d4d4d;}</style></defs><g id="Layer_2" data-name="Layer 2"><g id="Layer_1-2" data-name="Layer 1"><path class="cls-1" d="M26.25,0a.75.75,0,0,1,.41.77c0,1,0,2,0,3,0,.55-.19.74-.74.74H23.85v21a6.53,6.53,0,0,1,1,.08,2.24,2.24,0,0,1,1.8,2.17c0,.55,0,1.11,0,1.67a.58.58,0,0,1-.65.63H.86c-.7,0-.86-.15-.86-.84V27.92a2.29,2.29,0,0,1,2.39-2.4h.43v-21H.66A.59.59,0,0,1,0,3.88C0,2.81,0,1.75,0,.68A.74.74,0,0,1,.41,0ZM22.66,25.51v-21H4V25.5h6.22v-.36c0-2.26,0-4.52,0-6.78,0-.6.17-.78.76-.78h4.7c.59,0,.77.18.77.78v7.15ZM1.15,3.39H25.51V1.16H1.15Zm0,25.52H25.53V28c0-1-.43-1.39-1.4-1.39H2.21a1.09,1.09,0,0,0-1,1C1.12,28,1.16,28.47,1.16,28.91Zm14.14-3.4V18.74H11.37v6.77Z"/><path class="cls-1" d="M5.11,8.21V6.37c0-.48.2-.69.67-.69H9.54c.46,0,.67.22.67.69,0,1.23,0,2.46,0,3.7,0,.48-.21.7-.69.71H5.79c-.48,0-.68-.23-.68-.72ZM6.26,6.82V9.61h2.8V6.82Z"/><path class="cls-1" d="M21.55,8.22c0,.62,0,1.25,0,1.88a.58.58,0,0,1-.66.67H17.11c-.45,0-.66-.23-.66-.68q0-1.86,0-3.72c0-.48.21-.69.68-.69h3.75c.47,0,.67.21.67.69Zm-1.14-1.4H17.6v2.8h2.81Z"/><path class="cls-1" d="M5.11,14.45V12.6c0-.48.21-.69.68-.69H9.54a.59.59,0,0,1,.67.67c0,1.25,0,2.51,0,3.76a.59.59,0,0,1-.66.67H5.76a.59.59,0,0,1-.65-.66Zm1.14,1.4H9.06V13.06H6.25Z"/><path class="cls-1" d="M19,11.91h1.85c.47,0,.68.21.68.69v3.72c0,.47-.21.69-.68.69H17.12a.6.6,0,0,1-.67-.67c0-1.25,0-2.5,0-3.76,0-.46.22-.66.69-.67ZM17.6,13.05v2.8h2.8v-2.8Z"/></g></g></svg>