<svg xmlns="http://www.w3.org/2000/svg" viewBox="0 0 27.07 29.86"><defs><style>.cls-1{fill:#4d4d4d;}</style></defs><g id="Layer_2" data-name="Layer 2"><g id="Layer_1-2" data-name="Layer 1"><path class="cls-1" d="M19.43,0,22.9,2.54l.56.41a.63.63,0,0,1,.36.62c0,.31-.24.44-.54.48v.3q0,3.21,0,6.42a.5.5,0,0,0,.23.45c.91.64,1.8,1.3,2.69,1.95.35.26.44.57.22.84a1.53,1.53,0,0,1-.42.28V28.77a4.3,4.3,0,0,1,.51,0c.37,0,.58.23.57.55s-.23.52-.61.53H.8a2.11,2.11,0,0,1-.35,0A.51.51,0,0,1,0,29.32a.5.5,0,0,1,.45-.52c.2,0,.4,0,.63-.05V14.13c-.8.33-1,.15-1-.71,0-.58,0-1.17,0-1.75A.75.75,0,0,1,.37,11L6.9,6.26a.61.61,0,0,1,.87,0l1.31,1,.26-.18,3.74-2.72a.65.65,0,0,1,1,0l1.1.83V4.06A1.63,1.63,0,0,1,14.9,4a.54.54,0,0,1,0-.94l4.18-3ZM13,28.75V13.93a.45.45,0,0,0-.21-.43q-2.62-1.89-5.23-3.8a.32.32,0,0,0-.47,0Q4.75,11.41,2.4,13.11a.48.48,0,0,0-.23.45V28.75Zm11.88,0V14.24H14.45c-.24,0-.39.1-.38.41,0,4.59,0,9.19,0,13.79v.32h6V22.53c0-.59.17-.77.75-.77h2.25c.57,0,.75.19.75.75v6.25Zm-8.6-17.29h5.89V4H16.28Zm-1.66,1.66H24.3l-1-.73a4.17,4.17,0,0,1-.8.16H16c-.63,0-.79-.17-.79-.8,0-1.66,0-3.32,0-5a.5.5,0,0,0-.11-.33c-.49-.39-1-.75-1.5-1.14L10,7.9l.26.2c1.3.94,2.59,1.89,3.89,2.82a.92.92,0,0,1,.46.9C14.6,12.25,14.62,12.69,14.62,13.13Zm-1.08-.43a4,4,0,0,1,0-.49.62.62,0,0,0-.33-.64C12,10.73,10.87,9.87,9.7,9L7.32,7.29,1.24,11.72a.31.31,0,0,0-.12.18c0,.25,0,.5,0,.79l.32-.21L6.81,8.57c.45-.33.58-.33,1,0l5.39,3.92Zm7.59,10.17v2.7c.61.34.61.74,0,1.13v2.05h1.57V22.87ZM19.23,1.21,17,2.83h4.44Z"/><path class="cls-1" d="M8.11,18V16c0-.44.2-.65.64-.65.84,0,1.69,0,2.53,0a.56.56,0,0,1,.62.64c0,1.37,0,2.73,0,4.1a.56.56,0,0,1-.62.64c-.84,0-1.69,0-2.53,0-.44,0-.63-.21-.64-.65Zm2.69-.53v-1H9.22v1ZM9.21,19.58H10.8v-1H9.21Z"/><path class="cls-1" d="M8.11,24.43v-2c0-.47.2-.68.66-.69h2.48c.45,0,.65.21.65.66q0,2,0,4.05c0,.47-.2.67-.67.68H8.78c-.47,0-.67-.22-.67-.69Zm2.7-1.55H9.21v1h1.6Zm0,3.18V25H9.22v1Z"/><path class="cls-1" d="M3.25,24.47v-2c0-.51.2-.69.71-.7H6.32c.53,0,.73.2.73.72v4c0,.51-.2.71-.71.72H4c-.51,0-.7-.2-.71-.71Zm1.09-.58h1.6v-1H4.34Zm0,1.13v1H5.94V25Z"/><path class="cls-1" d="M3.25,18V16c0-.49.2-.68.7-.69H6.36c.47,0,.68.21.69.68v4c0,.47-.22.67-.69.68H3.92c-.46,0-.66-.2-.66-.65C3.25,19.35,3.25,18.67,3.25,18Zm2.69,1.59v-1H4.35v1ZM4.35,16.39v1H5.94v-1Z"/><path class="cls-1" d="M19,24.49c0,.66,0,1.32,0,2,0,.49-.19.68-.68.69H15.87c-.49,0-.69-.21-.69-.7v-4c0-.5.2-.7.71-.71h2.36c.53,0,.72.19.72.72S19,23.82,19,24.49Zm-2.69-.59h1.6v-1h-1.6Zm0,2.15h1.59V25H16.29Z"/><path class="cls-1" d="M19,18c0,.67,0,1.34,0,2,0,.49-.19.68-.69.69H15.87c-.49,0-.69-.22-.69-.7V16c0-.5.21-.71.71-.71h2.39c.5,0,.69.2.69.69C19,16.65,19,17.32,19,18Zm-1.08.56h-1.6v1h1.6Zm-1.6-2.16v1h1.59v-1Z"/><path class="cls-1" d="M20.05,18c0-.65,0-1.3,0-1.95s.19-.73.71-.73h2.36c.52,0,.72.2.72.72,0,1.33,0,2.65,0,4,0,.5-.2.7-.7.71H20.75c-.51,0-.7-.2-.7-.71C20,19.31,20.05,18.64,20.05,18Zm1.1.57v1h1.58v-1Zm1.59-2.14h-1.6v1h1.6Z"/><path class="cls-1" d="M17.32,7.73v-2c0-.48.2-.67.68-.67h2.44c.47,0,.68.2.68.67v4c0,.5-.19.68-.7.68H18c-.5,0-.68-.18-.69-.68ZM18.41,9.3H20v-1h-1.6ZM20,6.13H18.43v1H20Z"/></g></g></svg>