<svg xmlns="http://www.w3.org/2000/svg" viewBox="0 0 28.01 28.22"><defs><style>.cls-1{fill:#4d4d4d;}</style></defs><g id="Layer_2" data-name="Layer 2"><g id="Layer_1-2" data-name="Layer 1"><path class="cls-1" d="M24.59,0c.38.19.41.23.56.72h1.72c.14,0,.27,0,.41,0a.72.72,0,0,1,.73.77V3.58a.71.71,0,0,1-.77.77H25.16c-.23.65-.33.72-1,.72h-.47V21.6h1.29a1,1,0,0,1,1.15,1.14v2.6h.46A1.43,1.43,0,0,1,28,26.77c0,.22,0,.44,0,.66a.71.71,0,0,1-.81.79H16.55a.71.71,0,0,1-.8-.79q0-.32,0-.63a1.43,1.43,0,0,1,1.47-1.46h.42V22.66a1,1,0,0,1,1.07-1.06H20V5.08h-.55c-.62,0-.76-.11-.95-.71H9.65c0,.46,0,.91,0,1.37a.47.47,0,0,0,.12.18c.42.45.83.9,1.27,1.34a.55.55,0,0,0,.35.14c.6,0,.81.24.81.83s0,1.11,0,1.66-.23.76-.75.76H7a.67.67,0,0,1-.76-.76V8.18c0-.52.25-.77.76-.76a.63.63,0,0,0,.48-.21c.38-.43.79-.84,1.18-1.28a.57.57,0,0,0,.14-.35c0-.4,0-.79,0-1.21h-2a.71.71,0,0,1-.77-.73c0-.72,0-1.45,0-2.17A.73.73,0,0,1,6.81.72H18.49A.82.82,0,0,1,19,0Zm.67,25.34V22.82c0-.37,0-.39-.4-.39h-6c-.06,0-.13,0-.17,0s-.24.15-.24.23c0,.87,0,1.75,0,2.67h2.28c.32,0,.51.15.52.4s-.19.42-.53.42-.75,0-1.13,0H17.24a.57.57,0,0,0-.64.48,5.9,5.9,0,0,0,0,.73H27.17V27c0-.65-.19-.84-.83-.85-1.09,0-2.17,0-3.25,0a1.77,1.77,0,0,1-.33,0,.4.4,0,0,1,0-.79,2.54,2.54,0,0,1,.39,0Zm-1-21.1V.84H19.33v3.4Zm-17.18,4V9.81h4.27V8.25Zm15.69,3.93V8.78L21,10.48Zm0,5.78V14.54l-1.84,1.7Zm-2-12.15v3.4l1.84-1.69Zm1.87,13.31-1.86-1.74v3.46ZM20.82,15l1.85-1.68-1.85-1.72ZM10.21,3.42l1.71-1.85H8.51Zm4.08-1.87L16,3.43l1.74-1.88Zm-2.9,2h3.39L13.09,1.65ZM9,3.52c-.55-.6-1.15-1.25-1.76-1.89-.06-.07-.18-.07-.29-.1v2Zm12.4,18.06h1.4V20.29Zm0-16.5,1.39,1.31V5.08Zm4.54-3.53,1.23,1.38V1.55Zm.44,2L25.13,2.16V3.52ZM18.47,2.2l-.06,0L17.16,3.51h1.31ZM10,7.4l-.79-.85-.8.85Z"/><path class="cls-1" d="M.84,27.39H9.11V23.45a1.24,1.24,0,0,1,0-.33.41.41,0,0,1,.78.08,1.93,1.93,0,0,1,0,.24v3.95c0,.63-.21.83-.84.83H.8c-.58,0-.8-.22-.8-.79V9.82C0,9.24.22,9,.8,9H4.66c.57,0,.73.16.73.74v4.55H6.84V13.19c0-.32.16-.51.42-.51s.4.2.4.5,0,.75,0,1.16H9.3c.44,0,.64.13.63.42s-.19.4-.62.4H7.69v2.12H9.38a.5.5,0,0,1,.55.5c0,1.19,0,2.37,0,3.56a.38.38,0,0,1-.4.4.4.4,0,0,1-.41-.37,2.44,2.44,0,0,1,0-.27v-3H5.17c-.51,0-.61-.1-.61-.62V14.05H3.36a.43.43,0,0,1-.47-.4.42.42,0,0,1,.45-.42h1.2v-1.5H3.13a.38.38,0,0,1-.37-.43.36.36,0,0,1,.38-.38c.36,0,.72,0,1.08,0h.32v-1H.84Zm6-12.2H5.41v2.08H6.82Z"/><path class="cls-1" d="M5,22.27H2.56c-.51,0-.74-.23-.74-.73s0-1,0-1.52a.6.6,0,0,1,.66-.67c1.66,0,3.31,0,5,0a.61.61,0,0,1,.68.66c0,.53,0,1.06,0,1.6a.62.62,0,0,1-.68.66Zm-2.3-.85H4.54V20.19H2.66Zm4.63-1.23H5.41v1.23H7.29Z"/><path class="cls-1" d="M5,26.42H2.56c-.53,0-.74-.22-.74-.76s0-1,0-1.46a.62.62,0,0,1,.69-.7H7.42a.62.62,0,0,1,.7.69v1.55a.61.61,0,0,1-.68.68Zm-.4-.84c0-.38,0-.74,0-1.09,0-.06-.08-.15-.13-.15H2.66v1.25Zm.84,0H7.28V24.35H5.4Z"/></g></g></svg>