<svg xmlns="http://www.w3.org/2000/svg" viewBox="0 0 40.81 28.71"><defs><style>.cls-1{fill:#4d4d4d;}</style></defs><g id="Layer_2" data-name="Layer 2"><g id="Layer_1-2" data-name="Layer 1"><path class="cls-1" d="M0,14c.61-1.88,1.23-3.76,1.83-5.63L4,1.66A1.91,1.91,0,0,1,6.58.33c.88.28,1.76.59,2.65.85a2,2,0,0,1,1.56,1.68,8.31,8.31,0,0,0,2.72-.26,8,8,0,0,1,4.13,0c.6.19,1.17.5,1.76.73a.59.59,0,0,0,.45,0,6.65,6.65,0,0,1,6.08-.46c.73.28,1.45.59,2.19.85a2.14,2.14,0,0,0,1.54.1l-.06-.3a1.89,1.89,0,0,1,1.16-2.27c1-.39,2-.77,3-1.12a1.86,1.86,0,0,1,2.43,1.13q2.25,6,4.46,12a1.87,1.87,0,0,1-1.15,2.48c-1,.37-1.91.73-2.87,1.07a1.91,1.91,0,0,1-2.52-1,.4.4,0,0,0-.16-.19,3.41,3.41,0,0,1-.6,2.63,2.11,2.11,0,0,1-2.52.6,2.71,2.71,0,0,1-3.64,2.9c-.2,2-1,2.86-2.81,3a2.4,2.4,0,0,1-1,2.44A2.31,2.31,0,0,1,20.72,27c-.56,1.06-1.31,1.85-2.6,1.65a2.9,2.9,0,0,1-2.31-2.12,2.69,2.69,0,0,1-3.65-1.49,2.55,2.55,0,0,1-3-.12,2.58,2.58,0,0,1-.92-2.76c-.25,0-.51,0-.75-.05a2.6,2.6,0,0,1-1.92-3.71c.2-.42.44-.82.65-1.23a4.27,4.27,0,0,0,.18-.52c-.16.08-.23.1-.29.14a1.84,1.84,0,0,1-1.74.27c-1-.31-2-.64-2.95-.94A2.1,2.1,0,0,1,0,14.68Zm19.46,8.46c-.64-.46-.76-.7-.53-1s.41-.41,1.08,0l.14.08,3.59,1.9A1.56,1.56,0,0,0,26,22.44a1.6,1.6,0,0,0-.9-1.85c-1.09-.6-2.19-1.18-3.29-1.76a4,4,0,0,1-.35-.2.51.51,0,0,1-.23-.71.54.54,0,0,1,.75-.25l.28.15,5,2.69a1.63,1.63,0,0,0,1.34.18,1.5,1.5,0,0,0,1.1-1.28,1.52,1.52,0,0,0-.84-1.63q-2.4-1.32-4.82-2.62a1.54,1.54,0,0,1-.37-.23.48.48,0,0,1-.11-.68.49.49,0,0,1,.65-.23c.11,0,.21.1.32.15l2.9,1.58L31,17.65c1,.49,1.67.11,1.84-.95a1.93,1.93,0,0,0-.9-2c-1-.67-2-1.31-3.08-1.89-1.41-.79-2.86-1.52-4.3-2.25a1.83,1.83,0,0,0-.87-.23,11.63,11.63,0,0,0-1.94.36c-1.05.3-2.07.74-3.14,1A4.25,4.25,0,0,1,13.92,10a.64.64,0,0,1-.07-.84,7.87,7.87,0,0,1,.74-1c1.22-1.24,2.46-2.46,3.7-3.68.09-.1.2-.19.33-.31L18.42,4a6.06,6.06,0,0,0-4-.47A14.87,14.87,0,0,1,10.8,4c-.09,0-.24.14-.28.24-1,3.16-2.06,6.33-3.06,9.5a11.56,11.56,0,0,0-.27,1.56l.11,0a2.51,2.51,0,0,1,2.77-.53,2.76,2.76,0,0,1,1.69,2.32c2.07-.07,2.65.36,3.32,2.48a2.62,2.62,0,0,1,3.27,2.81Zm-4.54-13a3.28,3.28,0,0,0,1.76,1.19,4.77,4.77,0,0,0,2.69-.29c.93-.31,1.84-.67,2.78-1a3.78,3.78,0,0,1,3,.18c1.07.58,2.15,1.14,3.23,1.71a17.38,17.38,0,0,1,5,3.22s.14,0,.2.07a1.05,1.05,0,0,0,.06-.24.64.64,0,0,0-.06-.18L30.21,5.19l-.13-.31a4,4,0,0,1-2.78-.29c-.53-.19-1.06-.42-1.58-.64a5.54,5.54,0,0,0-6,.83C18.28,6,17,7.29,15.68,8.57,15.42,8.83,15.19,9.13,14.92,9.44Zm-9-8.15c-.41,0-.68.24-.84.73Q3.11,7.95,1.21,13.86c-.23.71-.05,1.06.68,1.29L4.38,16c.85.27,1.16.11,1.43-.73L8.42,7.14c.4-1.22.79-2.45,1.18-3.67.17-.53.05-1-.38-1.11C8.15,2,7.06,1.65,6,1.3Zm28.5-.18A2.91,2.91,0,0,0,34,1.2l-2.76,1a.83.83,0,0,0-.55,1.2L35.11,15.2a.82.82,0,0,0,1.22.55l2.61-1c.74-.27.9-.61.63-1.35L37.1,6.8l-1.87-5A.87.87,0,0,0,34.37,1.11ZM9.18,22.87a1.52,1.52,0,0,0,1.16,1.48A1.45,1.45,0,0,0,12,23.6q.86-1.56,1.68-3.12a1.49,1.49,0,1,0-2.63-1.4c-.55,1-1.09,2-1.61,3A5,5,0,0,0,9.18,22.87ZM7.83,21.06a1.43,1.43,0,0,0,1.32-.75c.45-.81.89-1.63,1.31-2.46a1.48,1.48,0,0,0-2.59-1.44c-.48.84-1,1.69-1.36,2.56A1.46,1.46,0,0,0,7.83,21.06Zm6.81,4.63A1.38,1.38,0,0,0,15.88,25c.44-.77.87-1.54,1.25-2.35a1.44,1.44,0,0,0-.68-1.87,1.46,1.46,0,0,0-1.93.51,25.55,25.55,0,0,0-1.23,2.31A1.46,1.46,0,0,0,14.64,25.69Zm4.3-2.18a2.62,2.62,0,0,0-2.06,2.65.36.36,0,0,0,0,.11,1.82,1.82,0,0,0,1.35,1.32c.72.1,1.09-.36,1.39-.91s.45-.84.63-1.28A1.31,1.31,0,0,0,18.94,23.51ZM21.24,26c.75.53,1.38.52,1.81,0a1.22,1.22,0,0,0-.25-1.79c-.61-.41-1.28-.72-1.92-1.07A2.41,2.41,0,0,1,21.24,26Z"/></g></g></svg>