<svg xmlns="http://www.w3.org/2000/svg" viewBox="0 0 29.27 30.21"><defs><style>.cls-1{fill:#4d4d4d;}</style></defs><g id="Layer_2" data-name="Layer 2"><g id="Layer_1-2" data-name="Layer 1"><path class="cls-1" d="M14.81,0l1,.55,1.71.86c.2.09.36.21.36.45s-.17.36-.36.46l-2.22,1.1a.42.42,0,0,0-.26.43,2.55,2.55,0,0,0,.33,1.4c1.11,2.19,2.19,4.4,3.31,6.58.31.61,0,1-.53.88a1.06,1.06,0,0,0-.24,0v6.18h1c0-.3,0-.59,0-.88s.15-.52.52-.52.88,0,1.34,0V16c-.13,0-.26,0-.38,0-.47,0-.66-.31-.45-.73.61-1.24,1.23-2.46,1.85-3.69S23,9.3,23.53,8.14a1.21,1.21,0,0,0,.12-.53c0-1.24,0-2.48,0-3.72,0-.53.28-.7.76-.47L27,4.71c.2.1.37.22.37.45s-.17.38-.38.48L24.8,6.73a.43.43,0,0,0-.27.41,2.77,2.77,0,0,0,.35,1.46C26,10.78,27.07,13,28.16,15.16c.3.6.15.85-.53.87h-.24v6.2h1.19c.58,0,.69.1.69.69v6.63c0,.52-.13.65-.64.65H18.13c-.5,0-.62-.13-.62-.63,0-1,0-2,0-3a2.87,2.87,0,1,0-5.74,0c0,1,0,2,0,3,0,.51-.12.63-.65.63H.64c-.51,0-.64-.13-.64-.64v-6.7c0-.5.13-.63.62-.63H1.8l.07,0V16c-.11,0-.21,0-.32,0-.55,0-.73-.29-.49-.78l1.86-3.71c.57-1.14,1.14-2.27,1.69-3.4a1,1,0,0,0,.11-.45c0-1.25,0-2.5,0-3.75,0-.57.28-.75.79-.5L8.05,4.69c.21.11.4.22.4.49s-.2.37-.4.47C7.32,6,6.6,6.39,5.86,6.74c-.2.09-.24.21-.26.42a2.64,2.64,0,0,0,.34,1.4c1.11,2.19,2.2,4.39,3.3,6.59a1.09,1.09,0,0,0,.08.15c.18.41,0,.7-.45.72-.13,0-.25,0-.4,0v1.49h.9c1,0,1,0,1,1v.41h1V12.7c-.15,0-.3,0-.44,0a.44.44,0,0,1-.41-.67,2.56,2.56,0,0,1,.11-.24c1.16-2.31,2.32-4.62,3.46-6.93a1.21,1.21,0,0,0,.13-.56c0-1.21,0-2.42,0-3.63A.74.74,0,0,1,14.46,0Zm6,29.31V18.42h-1c0,.3,0,.57,0,.84s-.16.54-.54.55c-.56,0-1.12,0-1.69,0-.39,0-.54-.16-.55-.56v-.84H16c0,.3,0,.57,0,.84s-.16.56-.56.56-1.08,0-1.62,0-.59-.15-.6-.61v-.79h-1c0,.29,0,.56,0,.83s-.15.57-.54.57q-.84,0-1.68,0c-.4,0-.55-.17-.55-.57s0-.54,0-.82h-1V29.3h2.41c0-.63,0-1.24,0-1.85s0-.92,0-1.38a3.75,3.75,0,0,1,7.38-.45,6.34,6.34,0,0,1,.1,1.06c0,.87,0,1.74,0,2.63Zm-13.26,0V24.54H6.23c-.39,0-.55-.17-.56-.56v-.84h-1V24c0,.42-.16.57-.58.57H2.47c-.43,0-.58-.16-.58-.6v-.8H.9v6.17Zm19.84-6.18V24a.47.47,0,0,1-.51.52c-.59,0-1.18,0-1.77,0-.34,0-.49-.17-.5-.52v-.88h-1v.67c0,.62-.11.73-.72.73H21.72v4.77h6.65V23.13ZM21.73,16v7.59h1v-.84c0-.41.14-.55.54-.55h1.69c.39,0,.54.15.55.55v.85h1V16Zm-18,7.61,0,0c0-.29,0-.57,0-.86a.45.45,0,0,1,.51-.5H6c.37,0,.52.15.53.52v.88h1V16H2.8v7.61ZM5.17,9l-3,6.12H8.23Zm22,6.13L24.09,9,21,15.13Zm-12,3.78c0-.31,0-.61,0-.9s.15-.5.51-.5.77,0,1.15,0c.18,0,.24-.06.24-.24,0-1.45,0-2.89,0-4.34,0-.15,0-.23-.22-.23-1.45,0-2.91,0-4.36,0-.17,0-.23.05-.23.22,0,1.46,0,2.91,0,4.37,0,.17.06.22.23.22.37,0,.74,0,1.12,0s.54.14.55.55v.85ZM14.63,5.69,11.58,11.8h6.11Zm-9-1.22v1.4L7,5.17Zm20.31.7-1.39-.69V5.86ZM16.48,1.86,15.1,1.17V2.55Z"/><path class="cls-1" d="M22.71,18.41a1.39,1.39,0,0,1,2.77,0,1.39,1.39,0,1,1-2.77,0Zm1.38-.49a.48.48,0,0,0-.49.51.5.5,0,0,0,.49.49.52.52,0,0,0,.51-.5A.5.5,0,0,0,24.09,17.92Z"/><path class="cls-1" d="M5.17,17a1.37,1.37,0,0,1,1.39,1.38,1.39,1.39,0,0,1-1.39,1.39,1.41,1.41,0,0,1-1.39-1.39A1.38,1.38,0,0,1,5.17,17Zm0,1.88a.5.5,0,0,0,.5-.5.48.48,0,0,0-.48-.5.5.5,0,0,0-.52.48A.52.52,0,0,0,5.17,18.92Z"/><path class="cls-1" d="M16,15.1a1.39,1.39,0,1,1-1.39-1.38A1.38,1.38,0,0,1,16,15.1Zm-1.39.5a.5.5,0,0,0,.5-.5.5.5,0,1,0-.5.5Z"/></g></g></svg>