<svg xmlns="http://www.w3.org/2000/svg" viewBox="0 0 26.17 23.58"><defs><style>.cls-1{fill:#fff;}</style></defs><g id="Layer_2" data-name="Layer 2"><g id="Layer_1-2" data-name="Layer 1"><path class="cls-1" d="M13,23.58,6.92,17.45c-1.55-1.56-3.13-3.11-4.67-4.68A7.39,7.39,0,0,1,4.94.47,7.15,7.15,0,0,1,12.3,1.86c.25.21.49.45.75.69.39-.33.75-.68,1.15-1a7.4,7.4,0,0,1,9.91.79A7.29,7.29,0,0,1,24,12.62c-3.54,3.67-7.19,7.22-10.78,10.82C13.18,23.48,13.12,23.51,13,23.58Zm0-2.48a2,2,0,0,0,.26-.22c3.13-3.13,6.28-6.25,9.39-9.41a5.68,5.68,0,1,0-8.09-8c-.51.5-1,1-1.62,1.71A25.92,25.92,0,0,0,11.1,3.15a5.59,5.59,0,0,0-6.58-.59,5.65,5.65,0,0,0-1,9c3.07,3.14,6.19,6.22,9.29,9.32C12.85,20.93,13,21,13.07,21.1Z"/></g></g></svg>