<svg xmlns="http://www.w3.org/2000/svg" viewBox="0 0 251.98 109.1"><defs><style>.cls-1{fill:#b48618;}.cls-2{fill:#fff;}</style></defs><g id="Layer_2" data-name="Layer 2"><g id="Layer_1-2" data-name="Layer 1"><path class="cls-1" d="M226.68,109.1l-4.48-2.6a1.57,1.57,0,0,1-.72-.54,4.07,4.07,0,0,1-.28-.38l-.07-.11a16.66,16.66,0,0,0-2.38-.71,2.21,2.21,0,0,1-1.53-.86l-.07-.12h-.08a1.62,1.62,0,0,1-.86.12,2.79,2.79,0,0,1-2-1.39,3.41,3.41,0,0,0-.84-1.13,3.22,3.22,0,0,0-.86-.33,7.18,7.18,0,0,1-1-.35,1.36,1.36,0,0,1-.53-.46,2.13,2.13,0,0,1-1-.52l-.24-.18-.09,0v0l0,.09a2.27,2.27,0,0,1-.83,1,3,3,0,0,0-.35.3l-.3.29h-5.77l-.23-.71c0-.09-.06-.19-.1-.29l-.06,0-.13.06-.37.21a3.11,3.11,0,0,1-1.67.59l-.05.12-.14.38-.36.18a1.34,1.34,0,0,1-.73.14l-.15,1.09-2.38-1.41-.84.18a16.84,16.84,0,0,1-2.29.41,2.25,2.25,0,0,0-.58.09,2.42,2.42,0,0,0-.19.62,2,2,0,0,1-1.12,1.43,1.81,1.81,0,0,1-1.6-.06,2.05,2.05,0,0,1-.61,1.15,2.52,2.52,0,0,0-.21.25l-.84,1.14-.83-1.15-.37-.5c-.24-.33-.48-.64-.68-1a2.35,2.35,0,0,0-.29-.39l-.1,0a1.5,1.5,0,0,1-1.16,0l-.44-.22-.12-.49a.28.28,0,0,1,0,0,2.51,2.51,0,0,0-.49-.19,2.73,2.73,0,0,1-1.67-1.06,2.73,2.73,0,0,1-1.05.81,1.86,1.86,0,0,1-2-.74l-.14.07-.39.2-1,.45-.41-1c-.06-.16-.13-.31-.19-.45l-.18-.41a2.67,2.67,0,0,1-.54,1l2.15,1.49-3.31-.3c-.06.27-.13.54-.22.82l0,.06a1.86,1.86,0,0,1-1.08,1.43,2.28,2.28,0,0,1-1.92-.38,2.7,2.7,0,0,1-.95-2.53l0,0-.85-.5-.17-.09a1.59,1.59,0,0,0-.2.28,2.7,2.7,0,0,1-2.27,1,1.52,1.52,0,0,1-1.16-.49,2,2,0,0,1-.37-1.61v0a2.07,2.07,0,0,1-2,0,1.88,1.88,0,0,1-.73-1.48l-.2-.14-.23.18c-.3.26-.58.54-.87.83a15,15,0,0,1-1.55,1.41,3,3,0,0,1-2.29.29,4.88,4.88,0,0,1-1.28-.53l-.31-.17-.73-.35.17-.79c0-.2.09-.4.14-.59s.1-.42.13-.6c-1.75-.11-2.4-.51-2.93-2.42a1.25,1.25,0,0,1,0-.42,1.44,1.44,0,0,1-.51,0l-.24,0a9.25,9.25,0,0,1-2.52-.67l-.13,0a1.27,1.27,0,0,0-.12.2,3.35,3.35,0,0,1-.95,1.12,2.33,2.33,0,0,1-1.82.51,2.47,2.47,0,0,1-1.6-1.25c-.67-1.05-1-.9-1.15-.81a6.22,6.22,0,0,1-1.1.41l-.4.12a1.16,1.16,0,0,1-1,0l-.65-.28c-.93-.41-1.88-.83-2.82-1.3a1.53,1.53,0,0,0-1-.27,10.65,10.65,0,0,1-2.71-.07l-.62-.06a1.62,1.62,0,0,1-1.25-1.53,3.65,3.65,0,0,0-1.79-3.34,1.68,1.68,0,0,1-.71.87,2,2,0,0,1-2,0,3.08,3.08,0,0,1-.53-.32l-.18-.12-.19-.1-.27-.13v0a1.6,1.6,0,0,1-1.29.87,3.37,3.37,0,0,1-2.73-.87c-.57-.62-1.13-1.24-1.69-1.87l-1.58-1.74a1.39,1.39,0,0,0-.32-.29,1.47,1.47,0,0,0-.32.23L116.58,87V83.3q.47-21.09.94-42.17v-.27h-.27l-10.36-.36c-9.48-.32-19.27-.66-28.91-1-3.38-.13-6.81-.33-10.13-.51l-4.43-.25-.49-.05-1.23-.15.72-13.25,1,0C113.8,28,166,28.49,218.5,26.9l1.06,0v1.06c0,.35,0,.68,0,1,0,.71,0,1.38,0,2.07-.14,6.15.95,12.32,2,18.28q.21,1.11.39,2.22c.69,3.94,1.42,8.15,2.11,12.37a16.51,16.51,0,0,1,.16,2.7v.06c.11,14.46.19,26.49.26,37.87a3.27,3.27,0,0,1-.32,1.3l0,.13Zm-7.58-6.37h.05a17.41,17.41,0,0,1,2.84.85,1.23,1.23,0,0,1,.42.25c-.06-11.18-.14-23-.25-37.18v-.07a16.45,16.45,0,0,0-.13-2.37c-.69-4.22-1.42-8.42-2.11-12.36l-.39-2.21c-1.07-6.06-2.18-12.33-2-18.69,0-.64,0-1.28,0-2-51.87,1.54-103.38,1-153.13-1.58l-.51,9.25L68,36.9c3.31.18,6.73.38,10.09.5,9.63.37,19.43.71,28.9,1l10.34.36c1.88.07,2.32.53,2.28,2.37l-.93,42a2.49,2.49,0,0,1,1.81,1l1.59,1.76,1.68,1.85a1.53,1.53,0,0,0,.78.24,2,2,0,0,1,1-.91,2.41,2.41,0,0,1,1.89.33l.17.09a3.52,3.52,0,0,1,.47.3l.11.08a4.57,4.57,0,0,1,.1-.61c0-.08,0-.15,0-.22l.09-.5,1.66-.87.51.79a4.16,4.16,0,0,1,.23.42l.1.18a5.65,5.65,0,0,1,3,4.77H134a9.22,9.22,0,0,0,2.2.08,3.58,3.58,0,0,1,2.25.47c.88.44,1.82.85,2.72,1.25l.31.13.34-.1a4.84,4.84,0,0,0,.77-.28c.81-.41,2.37-.74,3.82,1.55a2.07,2.07,0,0,0,.24.31,1.15,1.15,0,0,0,.23-.14,1.27,1.27,0,0,0,.36-.46,2,2,0,0,1,2.94-1,7.23,7.23,0,0,0,2,.49,3.31,3.31,0,0,1,.43-.24,6.21,6.21,0,0,1,.64-.23l1.47-.52.13,1.3a2,2,0,0,0,0,.26,3.69,3.69,0,0,1,0,1,1.7,1.7,0,0,1-.22.69c.12.38.18.5.22.53a4.57,4.57,0,0,0,1,.11c.71,0,1.77.73,1.77,1.62a6.08,6.08,0,0,1-.18,1.3,1.72,1.72,0,0,0,.37.14,1.91,1.91,0,0,0,.68,0,12.59,12.59,0,0,0,1.28-1.18c.31-.3.62-.61,1-.91.78-.69,1.47-.93,2.07-.7s1.59.82,1.75,1.71a2,2,0,0,1,2,.16,2,2,0,0,1,.73,1.76h0a2.12,2.12,0,0,1,2.11-1.17,1.64,1.64,0,0,1,1-.82,1.48,1.48,0,0,1,1.43.44,3,3,0,0,1,.67,1.27l.33-.68,1.24.41c.15-.2.12-.42,0-.76l-.63-1.34,1.47-.13h.42a1.72,1.72,0,0,1,1.51-.19,2,2,0,0,1,1.06,1.58,3.79,3.79,0,0,0,.12.36,1.69,1.69,0,0,1,1.93.57l.06-.1a1.81,1.81,0,0,0,.13-.44c0-.14.06-.28.1-.41l.3-1.06,3.92,1.38-.74,1.12h0a2.94,2.94,0,0,1,1.48.84,2.24,2.24,0,0,1,2.25,1.29,1.62,1.62,0,0,1,.74-.84,1.93,1.93,0,0,1,1.82.14,2.39,2.39,0,0,1,2.58-2.19,15.6,15.6,0,0,0,2-.37h0l-.15-1.4,2.65,1.58h0a1.37,1.37,0,0,1,1-.19,1.68,1.68,0,0,1,.68-.69l.39-.18.43.15c.14,0,.23,0,.7-.26a4.75,4.75,0,0,1,.6-.34l.14-.06a2.15,2.15,0,0,1,1.83-.27,1.72,1.72,0,0,1,.88,1.06h3.49l.16-.13.2-.17c.23-.69.41-1.23,1-1.5s1.14,0,1.88.29a2.88,2.88,0,0,1,.67.44l.08.05a1.41,1.41,0,0,1,1.33.77l.48.15a5,5,0,0,1,1.43.59A5.1,5.1,0,0,1,216,101.5a.75.75,0,0,0,.28.28l.05-.06h3Zm-46.64-.67a1.75,1.75,0,0,0-.14.9c.08-.27.15-.55.22-.84Zm-5.1-1.18Zm9.06-1Zm-24.07-5.7Zm-10.57-.26h0Z"/><path class="cls-2" d="M28,73.34a14.59,14.59,0,0,1-7.73,7.74,14.19,14.19,0,0,1-5.65,1.14A14,14,0,0,1,9,81.08a14.71,14.71,0,0,1-7.72-7.74,14.55,14.55,0,0,1,0-11.29,14.46,14.46,0,0,1,3.12-4.6A14.89,14.89,0,0,1,9,54.36a14,14,0,0,1,5.62-1.14,14.19,14.19,0,0,1,5.65,1.14,14.75,14.75,0,0,1,4.62,3.09A14.5,14.5,0,0,1,28,73.34ZM22.79,59.52a11.2,11.2,0,0,0-8.22-3.4,11.13,11.13,0,0,0-8.17,3.4,11.58,11.58,0,0,0,0,16.39,11.13,11.13,0,0,0,8.17,3.4,11.2,11.2,0,0,0,8.22-3.4,11.58,11.58,0,0,0,0-16.39Z"/><path class="cls-2" d="M40.3,81.88V53.67h2.9V66.91l9.5-13.24h3.74L46.06,67.78l10.38,14.1H52.7L43.2,68.65V81.88Z"/><path class="cls-2" d="M79.17,79v2.9h-13V53.67h2.9V79Z"/><path class="cls-2" d="M108.26,81.88l-3-7.67H92.83l-3,7.67H86.64L99.05,51.72l12.36,30.16Zm-4.09-10.37-5.12-13-5.15,13Z"/><path class="cls-2" d="M121.16,81.88V53.67h2.9v12.7h12.82V53.67h2.91V81.88h-2.91V69.27H124.06V81.88Z"/><path class="cls-2" d="M178.85,73.34a14.56,14.56,0,0,1-7.74,7.74,14.47,14.47,0,0,1-11.26,0,14.61,14.61,0,0,1-7.72-7.74,14.55,14.55,0,0,1,0-11.29,14.43,14.43,0,0,1,3.11-4.6,14.93,14.93,0,0,1,4.61-3.09,14.47,14.47,0,0,1,11.26,0,14.79,14.79,0,0,1,4.63,3.09,14.43,14.43,0,0,1,3.11,4.6,14.55,14.55,0,0,1,0,11.29Zm-5.16-13.82A11.59,11.59,0,1,0,157.3,75.91a11.59,11.59,0,1,0,16.39-16.39Z"/><path class="cls-2" d="M212.81,61.8l-8.46,21.74L195.84,61.8l-4.35,20.08h-3l6.59-30.07L204.35,76l9.25-24.14,6.55,30.07h-2.94Z"/><path class="cls-2" d="M248.82,81.88l-3-7.67H233.4l-3,7.67h-3.15l12.4-30.16L252,81.88Zm-4.09-10.37-5.12-13-5.14,13Z"/><path class="cls-1" d="M.68,38.37A4.86,4.86,0,0,1,0,35.89,4.1,4.1,0,0,1,.44,34a5.86,5.86,0,0,1,2.21-2.12c4.36-2.77,9.7-3.36,15-3.36l2.54,0,0,.58c-.86,0-1.74,0-2.6,0-5.18,0-10.4.56-14.64,3.24a5.55,5.55,0,0,0-2,1.91,3.34,3.34,0,0,0-.38,1.62,4.49,4.49,0,0,0,.59,2.18c1,1.8,4,3.54,8.25,3.54,3.71,0,8.37-1.36,13.47-5.25,3.89-2.94,8.78-8.28,9.13-13.14v-.44c0-2.36-1.12-4.6-3.59-5.25a10.72,10.72,0,0,0-2.36-.26,17.24,17.24,0,0,0-6.45,1.3c-2.18,1.23-2.57,1.09-4.28,2.38l-.23-.32c-1.39,4-2.39,7.42-2.45,7.75l-.59-.12,0-.12a61.65,61.65,0,0,1,4.07-17,.85.85,0,0,1,.85-.5c.65,0,1.39.47,1.39,1.06l-.06.29c-1.06,2.66-2.06,5.31-3.1,8.26l.12-.06C18.3,18.27,28.64,7,29.85,4.8a4.11,4.11,0,0,0,.59-2A1.9,1.9,0,0,0,29.35,1,5.44,5.44,0,0,0,27,.59c-3.33,0-9,1.89-14.58,8.43-1.65,1.91-3.86,4.86-4.16,8.25l-.59-.06C8,13.67,10.28,10.64,12,8.63,17.68,2,23.49,0,27,0a6,6,0,0,1,2.6.5A3.83,3.83,0,0,1,31.68,4a5.36,5.36,0,0,1-.24,1.47c-.73,2.45-4.36,8.08-9.84,11.85a17.65,17.65,0,0,1,4.48-.59,9.85,9.85,0,0,1,2.5.26,6.32,6.32,0,0,1,3.87,2.86,7.6,7.6,0,0,1,1.12,4c0,5.16-4.51,11.14-9.08,14.62-4.83,3.62-9.37,4.95-13.17,4.95C6.13,43.44,2.27,41,.68,38.37Z"/><path class="cls-1" d="M45.56,32C44.5,31.62,43,29.79,43,25.17v-.65c-1.82,3.68-3,5.74-4.68,7.07a1.74,1.74,0,0,1-.94.35h-.24c-1.27,0-1.92-2-1.92-4.59a17.41,17.41,0,0,1,2.33-8.78.59.59,0,0,1,.56-.27c.68,0,1.56.65,1.56,1.18a.48.48,0,0,1-.06.23,16.33,16.33,0,0,0-1.12,2.07,20.43,20.43,0,0,0-1.82,8.07l0,.68c.06.59.38.88.65.88a1,1,0,0,0,.59-.29c1.53-1.15,2.71-3,5.18-8.13a20.94,20.94,0,0,1,.92-4.34.74.74,0,0,1,.76-.41c.65,0,1.5.44,1.5.94l0,.15a29,29,0,0,0-1.35,6.19c-.06.74-.15,1.47-.15,2.21a6.41,6.41,0,0,0,.59,2.95c.15.29.47.91.86.91h0c.53-.06.91-.85,1.06-1.18.64-1.56,1.26-3.15,1.76-4.74l.56.17c-.53,1.62-1.12,3.25-1.79,4.81-.24.53-.74,1.44-1.57,1.53A2.33,2.33,0,0,1,45.56,32Z"/><path class="cls-1" d="M49,48.36a2.63,2.63,0,0,1-.89-.15c-1.15-.5-1.29-1.91-1.29-2.71v-.29a18.3,18.3,0,0,1,2.5-7.58,28.53,28.53,0,0,1,6.6-7.72c.3-2,.65-4.77,1.09-6.92-1.18,1.76-3.65,4.8-5.63,5.21a2.45,2.45,0,0,1-.5.06,1.81,1.81,0,0,1-.88-.21A2.88,2.88,0,0,1,49,27.17a4.83,4.83,0,0,1-.71-2.8,10.89,10.89,0,0,1,2.21-6.22.36.36,0,0,1,.32-.12c.59,0,1.68.74,1.68,1.21a.27.27,0,0,1,0,.15c-1.32,1.89-2.77,4.1-2.82,6.45v.24a2,2,0,0,0,.26,1.21,1.51,1.51,0,0,0,1,.38,1.71,1.71,0,0,0,.39,0,4.32,4.32,0,0,0,1.44-.76,19.28,19.28,0,0,0,4.63-5.54,4.51,4.51,0,0,1,.56-1.74,1.14,1.14,0,0,1,.94-.56,1.19,1.19,0,0,1,1.09,1.32,1.92,1.92,0,0,1-.09.56c-.09.44-.41,1.33-1.41,7.08a16.62,16.62,0,0,1,4.06-2.21l.18.56a16.93,16.93,0,0,0-4.36,2.47c-1,5.51-2.06,11.46-5.16,16.3-.91,1.44-2.21,3-3.92,3.24Zm2.41-2.6c2.68-4.06,3.74-10.43,4.39-15a25.85,25.85,0,0,0-6,7.16,17.71,17.71,0,0,0-2.45,7.3v.09c0,.56,0,2,1,2.33a.48.48,0,0,0,.14.06l.24,0C49.8,47.74,50.83,46.71,51.42,45.76Z"/><polygon class="cls-2" points="181.68 47.44 179.13 49.2 165.87 40.02 152.29 49.43 149.75 47.66 165.87 36.49 181.68 47.44"/><polygon class="cls-2" points="181.68 47.44 179.13 49.2 165.87 40.02 152.29 49.43 149.75 47.66 165.87 36.49 181.68 47.44"/></g></g></svg>