<svg xmlns="http://www.w3.org/2000/svg" viewBox="0 0 24.76 22.45"><defs><style>.cls-1{fill:#fff;}</style></defs><g id="Layer_2" data-name="Layer 2"><g id="Layer_1-2" data-name="Layer 1"><path class="cls-1" d="M3.61,22.45,3,22.08A.38.38,0,0,0,2.83,22a1.24,1.24,0,0,1-.69-.56C.65,18.5-.71,14.92.42,10.82,1.22,7.88,3.24,6,6.58,5a23.71,23.71,0,0,1,7-.8h1.5V1.93A1.68,1.68,0,0,1,16,.13a1.69,1.69,0,0,1,1.94.58l3.83,3.83,2.34,2.34a1.58,1.58,0,0,1,0,2.6L23,10.55c-1.7,1.71-3.46,3.47-5.22,5.18a2,2,0,0,1-1.59.53c-.34-.05-1.13-.31-1.12-1.65V12.17H14.8c-.67,0-1.3,0-1.92,0l-1,.07a25.23,25.23,0,0,0-3.82.43A4.8,4.8,0,0,0,4.2,17.44c0,.68,0,1.35,0,2.07,0,.46,0,.93,0,1.39a1.49,1.49,0,0,1-.22.71c0,.05-.05.1-.07.14Zm9.74-17A22.06,22.06,0,0,0,7,6.23c-2.91.88-4.58,2.45-5.27,4.94a12.54,12.54,0,0,0,1.17,8.75v-.38c0-.72,0-1.46,0-2.19a6.1,6.1,0,0,1,4.9-6,26.32,26.32,0,0,1,4-.46l1-.07c.69,0,1.38,0,2.05,0h1.56v3.76a1,1,0,0,0,0,.34.77.77,0,0,0,.43-.17c1.75-1.7,3.51-3.46,5.2-5.17l1.08-1.07c.26-.26.29-.36.29-.37a2.16,2.16,0,0,0-.29-.35L20.8,5.48C19.52,4.2,18.24,2.93,17,1.64c-.35-.35-.4-.33-.48-.29s-.1,0-.1.54v3.6h-3Z"/></g></g></svg>